<?xml version="1.0" encoding="UTF-8"?>
<svg version="1.1" xmlns="http://www.w3.org/2000/svg" width="640" height="640">
<path d="M0 0 C211.2 0 422.4 0 640 0 C640 211.2 640 422.4 640 640 C428.8 640 217.6 640 0 640 C0 428.8 0 217.6 0 0 Z " fill="#FEFEFE" transform="translate(0,0)"/>
<path d="M0 0 C5.49278301 0.73958655 10.64947257 2.27256744 15.9375 3.875 C17.23977539 4.25978516 17.23977539 4.25978516 18.56835938 4.65234375 C22.37612016 5.79783792 26.0907149 6.97284969 29.7265625 8.58984375 C32.94689592 9.97712342 36.04248713 10.83563019 39.4375 11.6875 C46.11777449 13.68161179 49.59265753 16.75316373 54 22 C55.36125 23.3303125 55.36125 23.3303125 56.75 24.6875 C59 27 59 27 60.875 29.4375 C63.13383229 32.16138599 65.56819022 34.27310905 68.2734375 36.53515625 C72.4019605 40.03786241 75.92688999 44.00284476 79.375 48.15625 C81.48068101 50.54538806 83.74240795 52.75380036 86 55 C102 71 118 87 134 103 C137.80358674 101.42475314 140.21320983 99.03433298 143.10400391 96.13891602 C143.59880753 95.64601074 144.09361115 95.15310547 144.60340881 94.64526367 C146.23271583 93.01965212 147.85472558 91.38696797 149.4765625 89.75390625 C150.60912189 88.62015426 151.74205173 87.48677222 152.87533569 86.35374451 C155.24715159 83.98036587 157.615574 81.60366942 159.98144531 79.22436523 C163.01390449 76.17490694 166.05291431 73.13208233 169.09426308 70.09149265 C171.43311611 67.75236769 173.76935367 65.4106454 176.10471725 63.06803703 C177.224472 61.94510086 178.34483277 60.82276867 179.46580887 59.70105171 C181.03133398 58.13335804 182.59352176 56.562415 184.15478516 54.99047852 C185.04428864 54.09716324 185.93379211 53.20384796 186.85025024 52.28346252 C189.12197481 49.99737438 189.12197481 49.99737438 191 47 C191.66 47 192.32 47 193 47 C193.20625 46.443125 193.4125 45.88625 193.625 45.3125 C195.15040566 42.74704502 196.99228065 41.30177801 199.30859375 39.46337891 C201.14496381 37.87457952 202.67156419 36.18071103 204.25 34.3359375 C204.86254639 33.62888672 205.47509277 32.92183594 206.10620117 32.19335938 C206.73115479 31.46955078 207.3561084 30.74574219 208 30 C217.59369127 18.90304634 225.55305516 11.96096338 239.97558594 8.50292969 C242.83439885 7.79270844 245.59365077 6.84084712 248.375 5.875 C249.30054688 5.56820313 250.22609375 5.26140625 251.1796875 4.9453125 C253.20987004 4.2648358 255.23540107 3.57042409 257.2578125 2.8671875 C258.32773437 2.49851562 259.39765625 2.12984375 260.5 1.75 C261.4590625 1.41484375 262.418125 1.0796875 263.40625 0.734375 C266 0 266 0 270 0 C268.59462464 6.96951456 266.57114511 13.53582617 264.25 20.25 C261.28096588 28.98522865 258.55950538 37.7477733 256.0769043 46.63256836 C254.65391482 51.72269708 253.16056852 56.77443333 251.5625 61.8125 C248.77434585 70.61007376 246.21570722 79.47181375 243.6484375 88.3359375 C241.40737785 96.06126427 239.09196742 103.76138236 236.6875 111.4375 C236.47947754 112.10289795 236.27145508 112.7682959 236.05712891 113.45385742 C234.8650114 117.26169333 233.66188458 121.06584519 232.44921875 124.8671875 C229.32461921 134.56769083 229.32461921 134.56769083 226.5625 144.375 C224.88359182 150.78903246 222.67151858 157.03067665 220.55151367 163.30883789 C218.7805091 168.57949434 217.13977013 173.83999724 215.75390625 179.2265625 C214.03728171 185.54160614 211.9797466 191.76340695 210 198 C209.67 198 209.34 198 209 198 C209 168.63 209 139.26 209 109 C208.34 109 207.68 109 207 109 C206.8040625 109.66 206.608125 110.32 206.40625 111 C204.42124769 115.2346716 201.51948862 118.45605714 198.5 122 C197.22489802 123.52074134 195.95147265 125.04288998 194.6796875 126.56640625 C193.73947754 127.69199951 193.73947754 127.69199951 192.78027344 128.84033203 C190.324186 131.8198369 187.96119186 134.86356334 185.625 137.9375 C182.79173283 141.66135441 179.93587743 145.35647084 177 149 C174.01223347 152.71225501 171.08563256 156.46759582 168.1875 160.25 C160.05710483 170.85181063 151.78437886 181.32792146 143.3269043 191.67114258 C142.80652588 192.30818115 142.28614746 192.94521973 141.75 193.6015625 C141.2653125 194.19356445 140.780625 194.78556641 140.28125 195.39550781 C139.22646038 196.7164067 138.22961036 198.08336044 137.25 199.4609375 C136.8375 199.96882812 136.425 200.47671875 136 201 C135.34 201 134.68 201 134 201 C132.60126876 199.49576101 131.28204731 197.91734851 130 196.3125 C129.19304687 195.30445313 128.38609375 194.29640625 127.5546875 193.2578125 C124.20288091 188.99955859 120.90122793 184.70307075 117.609375 180.3984375 C110.53715393 171.16376947 103.28058842 162.07065045 96 153 C95.35546875 152.19175781 94.7109375 151.38351562 94.046875 150.55078125 C89.73588906 145.14507644 85.37616816 139.78239179 80.98046875 134.4453125 C76 128.29585799 76 128.29585799 76 126 C75.34 126 74.68 126 74 126 C72.64266879 124.01620823 71.31729118 122.01060233 70 120 C67.36 116.7 64.72 113.4 62 110 C61.67 139.04 61.34 168.08 61 198 C58.83835629 194.75753444 57.84131231 191.88679381 56.625 188.1875 C56.22539062 186.98480469 55.82578125 185.78210938 55.4140625 184.54296875 C53.88889334 179.75037313 52.54121312 174.90867205 51.16894531 170.07055664 C49.13215217 162.93726274 46.98074561 155.83733754 44.84594727 148.73291016 C44.0658499 146.13615104 43.28771197 143.53881048 42.50976562 140.94140625 C41.01553367 135.95818967 39.51170076 130.97794422 38 126 C37.76255066 125.21733765 37.52510132 124.43467529 37.28045654 123.6282959 C36.60672096 121.41488582 35.9275236 119.20323934 35.24609375 116.9921875 C34.85993896 115.73519043 34.47378418 114.47819336 34.07592773 113.18310547 C33.20833097 110.616342 32.22537384 108.39761229 31 106 C30.32941558 103.31484473 29.70859062 100.64105474 29.125 97.9375 C27.79483538 92.02364311 26.2117396 86.42294969 24.0078125 80.765625 C22.37301705 76.27944213 21.17532292 71.6731984 19.9296875 67.06640625 C19.14037955 64.12406867 19.14037955 64.12406867 17.98828125 62.0546875 C16.53456741 59.03234173 16.00131446 55.82379476 15.3125 52.5625 C13.16771766 42.92364549 10.00445146 33.69288371 6.80322266 24.36328125 C4.07701773 16.34210689 1.6893993 8.30621322 0 0 Z " fill="#211F20" transform="translate(186,266)"/>
<path d="M0 0 C10.60992336 4.68141284 10.60992336 4.68141284 14.875 7.1875 C17.79101782 8.98858971 17.79101782 8.98858971 20.28515625 9.87890625 C23.55111182 11.22758143 26.51963956 12.97139848 29.5625 14.75 C40.69322323 21.13513884 52.25452924 26.70617896 63.75195312 32.39208984 C68.0911252 34.54014962 72.42123221 36.70607332 76.75 38.875 C77.9947304 39.49751834 79.23951387 40.11993061 80.484375 40.7421875 C81.31453125 41.15726563 82.1446875 41.57234375 83 42 C83 42.66 83 43.32 83 44 C83.75925781 44.2165625 84.51851563 44.433125 85.30078125 44.65625 C90.47235195 46.53483534 95.28304393 49.01659383 100.1875 51.5 C101.24960693 52.03463867 102.31171387 52.56927734 103.40600586 53.12011719 C109.98624434 56.44351976 116.53918309 59.81628313 123.0625 63.25 C124.20887939 63.8519519 124.20887939 63.8519519 125.37841797 64.46606445 C129.04916344 66.40364443 132.69004152 68.37928846 136.296875 70.43359375 C136.97613037 70.81418945 137.65538574 71.19478516 138.35522461 71.58691406 C139.61409294 72.29478215 140.86569345 73.0158199 142.10766602 73.75292969 C144.87581808 75.30006125 146.76637927 76.00555505 149.95703125 75.9296875 C153.64516966 74.80288783 156.9749873 73.22644028 160.375 71.4375 C161.63255838 70.7898709 162.89038726 70.14276687 164.1484375 69.49609375 C164.84226028 69.13713013 165.53608307 68.7781665 166.25093079 68.4083252 C169.53041198 66.72827437 172.82504812 65.0793333 176.12182617 63.43359375 C177.16714555 62.9113568 177.16714555 62.9113568 178.2335825 62.3785696 C180.48886769 61.2520042 182.74439548 60.12592591 185 59 C185.7380764 58.63156038 186.4761528 58.26312077 187.23659515 57.88351631 C191.11720445 55.94649138 194.99801035 54.00986072 198.87889099 52.07337952 C205.08921572 48.9743733 211.29851726 45.8733187 217.50771236 42.7720499 C222.19203045 40.43250057 226.87672317 38.09370777 231.56225586 35.7565918 C236.15279855 33.46681377 240.74231735 31.17499493 245.33117867 28.88184929 C247.05561581 28.02054052 248.78039913 27.15992438 250.50556755 26.30008125 C259.86928336 21.63252728 269.188037 16.89912251 278.41368008 11.96321964 C283.72242174 9.12464117 289.09984097 6.46830153 294.5625 3.9375 C295.39201172 3.54884766 296.22152344 3.16019531 297.07617188 2.75976562 C299.04901598 1.83606405 301.0242196 0.91740407 303 0 C304.19376575 3.54286555 303.82802614 6.21584897 303.19555664 9.87011719 C302.99527359 11.05103943 302.79499054 12.23196167 302.58863831 13.44866943 C302.36473923 14.71857727 302.14084015 15.98848511 301.91015625 17.296875 C301.68381246 18.61383045 301.45819074 19.93091019 301.23326111 21.24810791 C300.64039511 24.70828599 300.03775003 28.16669106 299.43304443 31.62481689 C298.81727992 35.15641046 298.21079044 38.6895948 297.60351562 42.22265625 C296.41141032 49.15002155 295.20896518 56.07555777 294 63 C293.0444371 63.27062256 292.08887421 63.54124512 291.10435486 63.82006836 C289.84780594 64.17721924 288.59125702 64.53437012 287.29663086 64.90234375 C286.05231796 65.25546631 284.80800507 65.60858887 283.52598572 65.97241211 C280.02987641 66.99129303 276.58557173 68.10701932 273.14111328 69.28515625 C268.26324977 70.91370635 263.30821872 72.30665957 258.37304688 73.75 C253.89696509 75.07522391 249.52502006 76.52042478 245.16918945 78.19628906 C240.54113277 79.91104006 235.82574178 81.37405258 231.125 82.875 C230.02671875 83.22651123 228.9284375 83.57802246 227.796875 83.94018555 C220.50033359 86.25596577 213.17729415 88.41173303 205.78833008 90.41088867 C201.41084154 91.59619204 197.10637615 92.89588784 192.8203125 94.375 C188.40993674 95.88929211 184.67566689 97 180 97 C180.04713135 98.06847168 180.0942627 99.13694336 180.14282227 100.23779297 C180.30708654 104.24408734 180.40951868 108.25009239 180.49438477 112.25878906 C180.53934209 113.9855369 180.60053584 115.71194801 180.67895508 117.4375 C181.39467626 133.60437841 181.39467626 133.60437841 175.9140625 139.74609375 C174.30942021 141.20172789 172.67247851 142.62284232 171 144 C169.74409284 145.25198882 168.49947556 146.51546502 167.26953125 147.79296875 C166.11985822 148.92719265 164.96756933 150.05877205 163.8125 151.1875 C159.72386674 155.18476716 155.89526395 159.20109812 152.3659668 163.70825195 C151 165 151 165 148 165 C146.66796875 163.7421875 146.66796875 163.7421875 145.1875 161.875 C141.10394614 156.97823306 136.61434311 152.55712735 132.06323242 148.10107422 C129.31808607 145.39442013 126.6871442 142.69154883 124.2578125 139.6953125 C122.10170114 136.86439955 122.10170114 136.86439955 119 135 C118.73332461 132.16272675 118.65208766 129.54616955 118.70703125 126.7109375 C118.71127609 125.89251373 118.71552094 125.07408997 118.71989441 124.23086548 C118.73671321 121.61191164 118.77437026 118.99372198 118.8125 116.375 C118.82754274 114.6015736 118.84123186 112.82813516 118.85351562 111.0546875 C118.88662708 106.7028297 118.93843048 102.35154449 119 98 C118.40171387 97.85594727 117.80342773 97.71189453 117.18701172 97.56347656 C109.03321822 95.47927559 101.26419536 92.59947193 93.40884399 89.61663818 C81.07018521 84.93455269 68.70615909 80.42073342 56.14453125 76.3671875 C52.04568821 75.03792278 48.02237863 73.54327582 44 72 C34.8384393 68.53162548 25.66166042 65.13432641 16.40844727 61.91674805 C11.19880313 60.09940156 11.19880313 60.09940156 9 59 C8.41611731 56.5085634 7.95740037 54.08553619 7.5625 51.5625 C7.37300781 50.42047119 7.37300781 50.42047119 7.1796875 49.25537109 C6.91315757 47.64464626 6.65039363 46.03329441 6.39111328 44.42138672 C6.02003641 42.12404567 5.63600291 39.82936749 5.24609375 37.53515625 C4.61503311 33.81552337 3.9976988 30.09382712 3.38818359 26.37060547 C3.11891375 24.72619655 2.84831304 23.08200521 2.57666016 21.43798828 C2.15092272 18.85518116 1.73096073 16.27149503 1.3125 13.6875 C1.18101562 12.8929541 1.04953125 12.0984082 0.9140625 11.27978516 C0.30512117 7.4779942 -0.1620399 3.86580914 0 0 Z " fill="#211F20" transform="translate(169,168)"/>
<path d="M0 0 C1.26823485 3.65393537 0.75715321 6.49070026 0.0625 10.25 C-0.13214844 11.32765625 -0.32679688 12.4053125 -0.52734375 13.515625 C-0.68332031 14.33546875 -0.83929688 15.1553125 -1 16 C-1.33 15.34 -1.66 14.68 -2 14 C-2.66 14 -3.32 14 -4 14 C-4.33 13.34 -4.66 12.68 -5 12 C-5.66 12.66 -6.32 13.32 -7 14 C-7.66 13.34 -8.32 12.68 -9 12 C-12.01586454 10.894183 -13.96083486 11.02312549 -17 12 C-17 12.66 -17 13.32 -17 14 C-17.99 13.67 -18.98 13.34 -20 13 C-20 12.67 -20 12.34 -20 12 C-20.66 11.67 -21.32 11.34 -22 11 C-18.89779023 9.35045833 -15.79290789 7.7060119 -12.6875 6.0625 C-11.80642578 5.59392578 -10.92535156 5.12535156 -10.01757812 4.64257812 C-9.17001953 4.19462891 -8.32246094 3.74667969 -7.44921875 3.28515625 C-6.27879028 2.66459351 -6.27879028 2.66459351 -5.0847168 2.03149414 C-3 1 -3 1 0 0 Z " fill="#232122" transform="translate(472,168)"/>
<path d="M0 0 C0.8968714 2.6906142 1.27859126 4.88897096 1.5625 7.6875 C1.68818359 8.89986328 1.68818359 8.89986328 1.81640625 10.13671875 C1.87699219 10.75160156 1.93757813 11.36648438 2 12 C-0.97 11.505 -0.97 11.505 -4 11 C-4.28875 11.5775 -4.5775 12.155 -4.875 12.75 C-5.91666667 14.83333333 -6.95833333 16.91666667 -8 19 C-8.86625 18.690625 -8.86625 18.690625 -9.75 18.375 C-12.51967567 17.91338739 -13.64561267 18.57055055 -16 20 C-16.66 19.34 -17.32 18.68 -18 18 C-12.06 12.06 -6.12 6.12 0 0 Z " fill="#272526" transform="translate(406,284)"/>
<path d="M0 0 C3.91939465 3.80411834 7.49102731 7.81576108 11 12 C9.74458443 14.51083114 8.49936512 14.87125446 6 16 C5.67 15.34 5.34 14.68 5 14 C3.02 14.99 3.02 14.99 1 16 C-0.50156874 12.99686252 -0.09281204 10.20932478 -0.0625 6.875 C-0.05347656 5.59367187 -0.04445312 4.31234375 -0.03515625 2.9921875 C-0.02355469 2.00476563 -0.01195312 1.01734375 0 0 Z " fill="#F5F4F5" transform="translate(248,376)"/>
<path d="M0 0 C0 0.66 0 1.32 0 2 C-0.66 2 -1.32 2 -2 2 C-2 2.99 -2 3.98 -2 5 C-2.99 5.495 -2.99 5.495 -4 6 C-3.67 6.66 -3.34 7.32 -3 8 C-3.60328125 8.06058594 -4.2065625 8.12117187 -4.828125 8.18359375 C-5.62734375 8.26738281 -6.4265625 8.35117188 -7.25 8.4375 C-8.03890625 8.51871094 -8.8278125 8.59992188 -9.640625 8.68359375 C-11.97139051 8.93603566 -11.97139051 8.93603566 -14.046875 9.59765625 C-16.3475781 10.07160109 -17.76417158 9.62522971 -20 9 C-17.04492094 7.49352402 -14.08542659 5.99593635 -11.125 4.5 C-10.28324219 4.07074219 -9.44148438 3.64148438 -8.57421875 3.19921875 C-7.76855469 2.79316406 -6.96289062 2.38710937 -6.1328125 1.96875 C-5.38918457 1.59169922 -4.64555664 1.21464844 -3.87939453 0.82617188 C-2 0 -2 0 0 0 Z " fill="#333132" transform="translate(366,222)"/>
<path d="M0 0 C1.32 0 2.64 0 4 0 C4.05382106 2.62527189 4.09358313 5.24944713 4.125 7.875 C4.14175781 8.62136719 4.15851563 9.36773437 4.17578125 10.13671875 C4.1933959 12.09194461 4.10320189 14.04742021 4 16 C3.34 16.66 2.68 17.32 2 18 C1.26916597 16.13365525 0.56621222 14.25637896 -0.125 12.375 C-0.71667969 10.80878906 -0.71667969 10.80878906 -1.3203125 9.2109375 C-2.11777054 5.44363574 -1.4996049 3.49208695 0 0 Z " fill="#2D2B2B" transform="translate(242,440)"/>
<path d="M0 0 C-0.75 5.75 -0.75 5.75 -3 8 C-5.67595823 8.62931533 -8.24448232 8.78130812 -11 9 C-11.33 8.67 -11.66 8.34 -12 8 C-13.32594105 7.63837971 -14.65938457 7.30271961 -16 7 C-13.71070947 5.82845707 -11.41881638 4.66261926 -9.125 3.5 C-8.47402344 3.16613281 -7.82304687 2.83226562 -7.15234375 2.48828125 C-2.2265625 0 -2.2265625 0 0 0 Z " fill="#2C292A" transform="translate(416,197)"/>
<path d="M0 0 C0.99 0.33 1.98 0.66 3 1 C3.62390625 0.76410156 4.2478125 0.52820313 4.890625 0.28515625 C5.93476563 0.14400391 5.93476563 0.14400391 7 0 C9.359375 1.87109375 9.359375 1.87109375 11.75 4.4375 C12.94882812 5.70400391 12.94882812 5.70400391 14.171875 6.99609375 C14.77515625 7.65738281 15.3784375 8.31867188 16 9 C15.67 9.99 15.34 10.98 15 12 C14.34 12 13.68 12 13 12 C12.608125 11.21625 12.21625 10.4325 11.8125 9.625 C9.3420619 6.04712413 7.18376737 5.8073937 3 5 C1.68 5 0.36 5 -1 5 C-0.67 4.34 -0.34 3.68 0 3 C0 2.01 0 1.02 0 0 Z " fill="#292728" transform="translate(290,346)"/>
<path d="M0 0 C0.99 0.33 1.98 0.66 3 1 C3 12.55 3 24.1 3 36 C4.32 36.66 5.64 37.32 7 38 C6.67 38.99 6.34 39.98 6 41 C5.34 40.34 4.68 39.68 4 39 C3.67 39.66 3.34 40.32 3 41 C2 40 2 40 1.88647461 36.48999023 C1.88663374 34.92951578 1.89232858 33.36903607 1.90234375 31.80859375 C1.9037587 30.98875504 1.90517365 30.16891632 1.90663147 29.32423401 C1.91224711 26.69528618 1.92480221 24.06642227 1.9375 21.4375 C1.94251299 19.65950643 1.94707624 17.88151154 1.95117188 16.10351562 C1.96222161 11.73564455 1.97949669 7.36783652 2 3 C0.35 2.67 -1.3 2.34 -3 2 C-2.01 1.34 -1.02 0.68 0 0 Z " fill="#312F30" transform="translate(286,263)"/>
<path d="M0 0 C3.15649355 1.3905258 5.23989506 3.02033143 7.625 5.5 C8.21539062 6.1084375 8.80578125 6.716875 9.4140625 7.34375 C10.19910156 8.16359375 10.19910156 8.16359375 11 9 C11.66 9.66 12.32 10.32 13 11 C8.25 12.125 8.25 12.125 6 11 C6 10.01 6 9.02 6 8 C4.02 7.34 2.04 6.68 0 6 C0 4.02 0 2.04 0 0 Z " fill="#2C2B2C" transform="translate(309,360)"/>
<path d="M0 0 C5.32697239 1.45281065 8.36402802 5.08111378 12 9 C11.67 9.99 11.34 10.98 11 12 C8.00306862 11.00102287 6.97290587 10.34869747 5 8 C5 7.34 5 6.68 5 6 C2.69 6 0.38 6 -2 6 C-2 5.34 -2 4.68 -2 4 C0.97 4.495 0.97 4.495 4 5 C2.68 4.34 1.36 3.68 0 3 C0 2.01 0 1.02 0 0 Z M-4 6 C-2 7 -2 7 -2 7 Z " fill="#2D2A2B" transform="translate(228,279)"/>
<path d="M0 0 C0.99 0.33 1.98 0.66 3 1 C2 4 2 4 0 5 C-0.33 5.99 -0.66 6.98 -1 8 C-1.66 8 -2.32 8 -3 8 C-3 8.99 -3 9.98 -3 11 C-5.97 10.505 -5.97 10.505 -9 10 C-8.06409496 8.8944811 -7.12620142 7.79064547 -6.1875 6.6875 C-5.66542969 6.07261719 -5.14335937 5.45773437 -4.60546875 4.82421875 C-3.12827531 3.14575321 -1.59960869 1.56117966 0 0 Z " fill="#2B2A2B" transform="translate(339,352)"/>
<path d="M0 0 C-0.33 1.32 -0.66 2.64 -1 4 C-1.33 3.34 -1.66 2.68 -2 2 C-2.53625 2.45375 -3.0725 2.9075 -3.625 3.375 C-7.8550931 6.26927423 -11.9057249 7.29966324 -17 7 C-14.11814245 4.72660889 -11.20291993 2.92457432 -7.9375 1.25 C-7.08027344 0.80140625 -6.22304688 0.3528125 -5.33984375 -0.109375 C-3 -1 -3 -1 0 0 Z " fill="#353233" transform="translate(447,183)"/>
<path d="M0 0 C0.66 1.32 1.32 2.64 2 4 C0.68 4.33 -0.64 4.66 -2 5 C-2.0825 5.61875 -2.165 6.2375 -2.25 6.875 C-3 9 -3 9 -4.8125 10.1875 C-6.86275851 10.94902459 -8.8766834 11.48808929 -11 12 C-7.49102731 7.81576108 -3.91939465 3.80411834 0 0 Z " fill="#292728" transform="translate(353,338)"/>
<path d="M0 0 C0.625 1.875 0.625 1.875 1 4 C-0.65782611 5.65782611 -2.3270676 7.12811675 -4.125 8.625 C-8.31458785 12.18835472 -12.15837711 16.06857294 -16 20 C-16.66 19.67 -17.32 19.34 -18 19 C-17.52578613 18.53102295 -17.05157227 18.0620459 -16.56298828 17.57885742 C-14.41436915 15.45103477 -12.26965202 13.31932077 -10.125 11.1875 C-9.37863281 10.44951172 -8.63226563 9.71152344 -7.86328125 8.95117188 C-7.14785156 8.23896484 -6.43242187 7.52675781 -5.6953125 6.79296875 C-5.03547363 6.1383667 -4.37563477 5.48376465 -3.69580078 4.80932617 C-1.81831708 2.9054354 -1.81831708 2.9054354 0 0 Z " fill="#DFDEDE" transform="translate(348,302)"/>
<path d="M0 0 C0 1.32 0 2.64 0 4 C-2.64 4.33 -5.28 4.66 -8 5 C-8 5.66 -8 6.32 -8 7 C-8.99 6.67 -9.98 6.34 -11 6 C-11 5.67 -11 5.34 -11 5 C-11.66 4.67 -12.32 4.34 -13 4 C-11.40233897 3.13372601 -9.79660056 2.28233535 -8.1875 1.4375 C-7.29417969 0.96183594 -6.40085937 0.48617187 -5.48046875 -0.00390625 C-3 -1 -3 -1 0 0 Z " fill="#292728" transform="translate(463,175)"/>
<path d="M0 0 C0.33 0 0.66 0 1 0 C1.335939 1.4577353 1.66866624 2.91621106 2 4.375 C2.185625 5.18710937 2.37125 5.99921875 2.5625 6.8359375 C3 9 3 9 3 11 C0.69 12.32 -1.62 13.64 -4 15 C-3.52229477 13.06213915 -3.04278429 11.12472326 -2.5625 9.1875 C-2.29566406 8.10855469 -2.02882813 7.02960938 -1.75390625 5.91796875 C-1.23922588 3.9259157 -0.65062825 1.95188476 0 0 Z " fill="#F0EFEF" transform="translate(452,277)"/>
<path d="M0 0 C-1.32 0.33 -2.64 0.66 -4 1 C-4 1.66 -4 2.32 -4 3 C-3.01 3.33 -2.02 3.66 -1 4 C-1.66 4.66 -2.32 5.32 -3 6 C-6.82773086 5.57469657 -10.3756723 4.26430036 -14 3 C-14 2.34 -14 1.68 -14 1 C-12.88625 1.020625 -11.7725 1.04125 -10.625 1.0625 C-6.80898902 0.99670671 -3.88602231 -0.10226374 0 0 Z " fill="#282727" transform="translate(264,250)"/>
<path d="M0 0 C3.63 1.65 7.26 3.3 11 5 C7 6 7 6 4 5 C3.34 6.65 2.68 8.3 2 10 C1.67 10 1.34 10 1 10 C0.67 6.7 0.34 3.4 0 0 Z " fill="#363636" transform="translate(169,168)"/>
<path d="M0 0 C10.11764706 8.23529412 10.11764706 8.23529412 12 12 C9.5625 11.625 9.5625 11.625 7 11 C6.67 10.34 6.34 9.68 6 9 C3.98330173 7.86649466 3.98330173 7.86649466 2 7 C2 6.01 2 5.02 2 4 C1.34 4 0.68 4 0 4 C0 2.68 0 1.36 0 0 Z " fill="#383838" transform="translate(250,299)"/>
<path d="M0 0 C0.99 0.33 1.98 0.66 3 1 C3 1.99 3 2.98 3 4 C4.32 4.66 5.64 5.32 7 6 C7 6.66 7 7.32 7 8 C7.66 8 8.32 8 9 8 C8.67 8.99 8.34 9.98 8 11 C0.51708428 4.84965831 0.51708428 4.84965831 -2 1 C-1.34 0.67 -0.68 0.34 0 0 Z " fill="#2A2929" transform="translate(302,313)"/>
<path d="M0 0 C2.97 0.495 2.97 0.495 6 1 C7 4 7 4 6.0625 6.1875 C5.5365625 7.0846875 5.5365625 7.0846875 5 8 C3.0625 7.375 3.0625 7.375 1 6 C0.25 2.875 0.25 2.875 0 0 Z " fill="#2B2B2B" transform="translate(186,266)"/>
<path d="M0 0 C0.66 0.66 1.32 1.32 2 2 C1.54682422 6.75834574 0.19468814 11.38053918 -1 16 C-2.8291543 12.91154332 -3.2064877 10.98729251 -2.75 7.4375 C-2.66234375 6.67308594 -2.5746875 5.90867187 -2.484375 5.12109375 C-2 3 -2 3 0 0 Z " fill="#373334" transform="translate(422,368)"/>
<path d="M0 0 C3.21043882 1.38188453 5.04936365 2.92421903 7.25 5.625 C7.77078125 6.25664062 8.2915625 6.88828125 8.828125 7.5390625 C9.40820312 8.26222656 9.40820312 8.26222656 10 9 C9.01 9.33 8.02 9.66 7 10 C5.48954741 8.48954741 3.99169135 6.96648363 2.5 5.4375 C0.2536624 3.00008339 0.2536624 3.00008339 -2 2 C-1.34 1.34 -0.68 0.68 0 0 Z " fill="#272627" transform="translate(282,333)"/>
<path d="M0 0 C3 0.1875 3 0.1875 6 1 C6.66 1.99 7.32 2.98 8 4 C4.37 4.66 0.74 5.32 -3 6 C-2 2 -2 2 0 0 Z " fill="#2F2B2C" transform="translate(408,242)"/>
<path d="M0 0 C2.64 0.99 5.28 1.98 8 3 C6.1875 4.0625 6.1875 4.0625 4 5 C3.01 4.67 2.02 4.34 1 4 C1 4.66 1 5.32 1 6 C-0.65 5.67 -2.3 5.34 -4 5 C-3.34 4.01 -2.68 3.02 -2 2 C-2 2.66 -2 3.32 -2 4 C-1.34 4 -0.68 4 0 4 C0 2.68 0 1.36 0 0 Z M-4 6 C-2.68 6.33 -1.36 6.66 0 7 C-0.99 7.495 -0.99 7.495 -2 8 C-2.66 7.34 -3.32 6.68 -4 6 Z " fill="#312F30" transform="translate(244,207)"/>
<path d="M0 0 C-0.66 2.97 -1.32 5.94 -2 9 C-2.66 7.68 -3.32 6.36 -4 5 C-3.34 5 -2.68 5 -2 5 C-2 4.34 -2 3.68 -2 3 C-7.94 3.495 -7.94 3.495 -14 4 C-9.52281208 1.01520806 -5.36175907 0 0 0 Z " fill="#474747" transform="translate(456,266)"/>
<path d="M0 0 C4.455 0.99 4.455 0.99 9 2 C8.67 2.66 8.34 3.32 8 4 C8.99 4.66 9.98 5.32 11 6 C8.03 5.505 8.03 5.505 5 5 C5 4.01 5 3.02 5 2 C4.34 3.32 3.68 4.64 3 6 C2.34 6 1.68 6 1 6 C-0.0625 4.125 -0.0625 4.125 -1 2 C-0.67 1.34 -0.34 0.68 0 0 Z " fill="#323131" transform="translate(206,272)"/>
<path d="M0 0 C0.7425 0.185625 1.485 0.37125 2.25 0.5625 C4.94990963 0.99203108 6.44631077 0.85122974 9 0 C9 0.99 9 1.98 9 3 C6.24075815 4.80411967 5.11027897 5.0127245 1.75 4.625 C0.8425 4.41875 -0.065 4.2125 -1 4 C-0.67 2.68 -0.34 1.36 0 0 Z " fill="#EAE8E9" transform="translate(315,240)"/>
<path d="M0 0 C0.33 0.66 0.66 1.32 1 2 C3.02463255 2.65213292 3.02463255 2.65213292 5 3 C5.33 4.32 5.66 5.64 6 7 C5.34 7 4.68 7 4 7 C3.67 7.66 3.34 8.32 3 9 C1.35 7.02 -0.3 5.04 -2 3 C-1.34 3 -0.68 3 0 3 C0 2.01 0 1.02 0 0 Z " fill="#282828" transform="translate(294,303)"/>
<path d="M0 0 C0 0.99 0 1.98 0 3 C-2.97 4.32 -5.94 5.64 -9 7 C-9.33 6.01 -9.66 5.02 -10 4 C-3.375 0 -3.375 0 0 0 Z " fill="#EDECEC" transform="translate(436,184)"/>
<path d="M0 0 C1.32 0.33 2.64 0.66 4 1 C1.69 3.31 -0.62 5.62 -3 8 C-3.66 7.34 -4.32 6.68 -5 6 C-5 5.34 -5 4.68 -5 4 C-2.75 1.8125 -2.75 1.8125 0 0 Z " fill="#E8E7E8" transform="translate(349,338)"/>
<path d="M0 0 C0.33 0.99 0.66 1.98 1 3 C1.99 3.33 2.98 3.66 4 4 C3.38125 4.103125 2.7625 4.20625 2.125 4.3125 C-0.36526484 4.87525373 -0.36526484 4.87525373 -2 8 C-3.32 7.34 -4.64 6.68 -6 6 C-4.02 4.02 -2.04 2.04 0 0 Z " fill="#383435" transform="translate(394,296)"/>
<path d="M0 0 C0.33 0.99 0.66 1.98 1 3 C-0.1796875 4.82421875 -0.1796875 4.82421875 -1.875 6.6875 C-2.42929687 7.31011719 -2.98359375 7.93273437 -3.5546875 8.57421875 C-5 10 -5 10 -6 10 C-6.375 7.8125 -6.375 7.8125 -6 5 C-4.16038352 3.00977164 -2.20813852 1.61010101 0 0 Z " fill="#EFECED" transform="translate(392,295)"/>
<path d="M0 0 C2.4375 1.0625 2.4375 1.0625 5 3 C5.8125 6.6875 5.8125 6.6875 6 10 C5.67 8.68 5.34 7.36 5 6 C3.68 6 2.36 6 1 6 C0.67 6.66 0.34 7.32 0 8 C-1.125 2.25 -1.125 2.25 0 0 Z " fill="#292728" transform="translate(192,280)"/>
<path d="M0 0 C0.33 1.65 0.66 3.3 1 5 C1.66 5 2.32 5 3 5 C3 5.66 3 6.32 3 7 C3.66 7.33 4.32 7.66 5 8 C4.01 8.33 3.02 8.66 2 9 C0.02 6.36 -1.96 3.72 -4 1 C-2 0 -2 0 0 0 Z " fill="#2A2829" transform="translate(307,444)"/>
<path d="M0 0 C0.12375 0.639375 0.2475 1.27875 0.375 1.9375 C0.684375 2.9584375 0.684375 2.9584375 1 4 C1.66 4.33 2.32 4.66 3 5 C3 5.66 3 6.32 3 7 C3.66 7 4.32 7 5 7 C4.67 7.66 4.34 8.32 4 9 C-0.20626034 7.49776416 -1.73900021 4.71449966 -4 1 C-2 0 -2 0 0 0 Z " fill="#2A292A" transform="translate(292,425)"/>
<path d="M0 0 C2 1.1875 2 1.1875 4 3 C4.25 5.6875 4.25 5.6875 4 8 C2.68 7.67 1.36 7.34 0 7 C0 4.69 0 2.38 0 0 Z " fill="#E7E5E6" transform="translate(248,376)"/>
<path d="M0 0 C4.43090471 1.20842856 6.98112756 2.51668565 10 6 C9.01 6.495 9.01 6.495 8 7 C6.0546875 6.22265625 6.0546875 6.22265625 3.875 5.0625 C3.15054687 4.68222656 2.42609375 4.30195313 1.6796875 3.91015625 C1.12539063 3.60980469 0.57109375 3.30945313 0 3 C0 2.01 0 1.02 0 0 Z " fill="#E2E0E1" transform="translate(299,233)"/>
<path d="M0 0 C-0.11458693 1.43836751 -0.24209116 2.87570966 -0.375 4.3125 C-0.44460938 5.11300781 -0.51421875 5.91351563 -0.5859375 6.73828125 C-1 9 -1 9 -3 12 C-3 8.37 -3 4.74 -3 1 C-1 0 -1 0 0 0 Z " fill="#1A1A1A" transform="translate(398,452)"/>
<path d="M0 0 C0.33 1.32 0.66 2.64 1 4 C0.67 3.34 0.34 2.68 0 2 C-0.66 2 -1.32 2 -2 2 C-1.67 2.99 -1.34 3.98 -1 5 C-3.375 5.625 -3.375 5.625 -6 6 C-6.66 5.34 -7.32 4.68 -8 4 C-5.36 2.68 -2.72 1.36 0 0 Z " fill="#3E3E3E" transform="translate(472,168)"/>
<path d="M0 0 C3.3 0.33 6.6 0.66 10 1 C10 1.66 10 2.32 10 3 C8.865625 3.12375 7.73125 3.2475 6.5625 3.375 C4.7990625 3.684375 4.7990625 3.684375 3 4 C2.67 4.66 2.34 5.32 2 6 C0 3 0 3 0 0 Z " fill="#292728" transform="translate(315,458)"/>
<path d="M0 0 C2.4375 0.8125 2.4375 0.8125 5 2 C5.33 2.99 5.66 3.98 6 5 C5.34 5.66 4.68 6.32 4 7 C2 5.1875 2 5.1875 0 3 C0 2.01 0 1.02 0 0 Z " fill="#2F2C2D" transform="translate(264,394)"/>
<path d="M0 0 C0.66 0 1.32 0 2 0 C3.625 2.5 3.625 2.5 5 5 C1.67465243 6.10844919 -0.62182575 5.84454356 -4 5 C-3.67 4.34 -3.34 3.68 -3 3 C-2.01 3.33 -1.02 3.66 0 4 C0 2.68 0 1.36 0 0 Z " fill="#3C3A3B" transform="translate(240,289)"/>
<path d="M0 0 C0 0.99 0 1.98 0 3 C-3 4 -3 4 -5.1875 3.0625 C-5.785625 2.711875 -6.38375 2.36125 -7 2 C-5.26578631 -1.46842738 -3.40984787 -1.13661596 0 0 Z " fill="#2A2627" transform="translate(239,244)"/>
<path d="M0 0 C0.66 0.99 1.32 1.98 2 3 C1.01 4.485 1.01 4.485 0 6 C0.66 6 1.32 6 2 6 C1.67 7.65 1.34 9.3 1 11 C0.01 11 -0.98 11 -2 11 C-1.34 7.37 -0.68 3.74 0 0 Z " fill="#E0DEDF" transform="translate(413,405)"/>
<path d="M0 0 C0.6875 1.8125 0.6875 1.8125 1 4 C-0.3125 5.625 -0.3125 5.625 -2 7 C-2.66 7.66 -3.32 8.32 -4 9 C-4.99 8.34 -5.98 7.68 -7 7 C-5.625 5.5 -5.625 5.5 -4 4 C-3.34 4 -2.68 4 -2 4 C-1.34 2.68 -0.68 1.36 0 0 Z " fill="#CECECE" transform="translate(327,324)"/>
<path d="M0 0 C0.33 1.32 0.66 2.64 1 4 C0.01 5.485 0.01 5.485 -1 7 C-3.625 7.1875 -3.625 7.1875 -6 7 C-4.02 4.69 -2.04 2.38 0 0 Z " fill="#373637" transform="translate(406,284)"/>
<path d="M0 0 C-0.33 1.32 -0.66 2.64 -1 4 C-1.33 3.34 -1.66 2.68 -2 2 C-3.32 2.99 -4.64 3.98 -6 5 C-6.66 4.67 -7.32 4.34 -8 4 C-7 1 -7 1 -5.125 -0.25 C-3 -1 -3 -1 0 0 Z " fill="#2E2C2D" transform="translate(447,183)"/>
<path d="M0 0 C0.66 0.66 1.32 1.32 2 2 C1.625 4.625 1.625 4.625 1 7 C0.01 7.33 -0.98 7.66 -2 8 C-1.125 1.125 -1.125 1.125 0 0 Z " fill="#2E2C2D" transform="translate(414,395)"/>
<path d="M0 0 C2.03144641 0.93446535 4.03533587 1.93224776 6 3 C5.67 3.99 5.34 4.98 5 6 C3.35 5.67 1.7 5.34 0 5 C0.99 4.67 1.98 4.34 3 4 C1.68 3.34 0.36 2.68 -1 2 C-1.33 2.66 -1.66 3.32 -2 4 C-2 3.01 -2 2.02 -2 1 C-1.34 0.67 -0.68 0.34 0 0 Z " fill="#282727" transform="translate(260,312)"/>
<path d="M0 0 C0.33 1.32 0.66 2.64 1 4 C-0.65 5.32 -2.3 6.64 -4 8 C-4.66 7.34 -5.32 6.68 -6 6 C-4.02 4.02 -2.04 2.04 0 0 Z " fill="#424242" transform="translate(385,305)"/>
<path d="M0 0 C-0.33 1.65 -0.66 3.3 -1 5 C-2.32 5.33 -3.64 5.66 -5 6 C-5.33 4.68 -5.66 3.36 -6 2 C-2.25 0 -2.25 0 0 0 Z " fill="#302F30" transform="translate(396,207)"/>
<path d="M0 0 C0.66 0.99 1.32 1.98 2 3 C-0.35277269 5.72426311 -2.62496331 6.8141763 -6 8 C-4.02 5.36 -2.04 2.72 0 0 Z " fill="#D2D1D2" transform="translate(366,410)"/>
<path d="M0 0 C1.2077558 3.62326739 0.54311128 4.64146369 -1 8 C-1.33 7.01 -1.66 6.02 -2 5 C-2.99 5.33 -3.98 5.66 -5 6 C-5 5.01 -5 4.02 -5 3 C-4.360625 2.690625 -3.72125 2.38125 -3.0625 2.0625 C-1.06389179 1.1654837 -1.06389179 1.1654837 0 0 Z " fill="#1A1819" transform="translate(230,388)"/>
<path d="M0 0 C1.98 0.495 1.98 0.495 4 1 C4 1.99 4 2.98 4 4 C2.02 4.99 2.02 4.99 0 6 C-1 3 -1 3 0 0 Z " fill="#E3E3E3" transform="translate(254,386)"/>
<path d="M0 0 C0 0.66 0 1.32 0 2 C-0.99 2.495 -0.99 2.495 -2 3 C-2.33 3.99 -2.66 4.98 -3 6 C-3.99 5.67 -4.98 5.34 -6 5 C-6 4.67 -6 4.34 -6 4 C-6.66 3.67 -7.32 3.34 -8 3 C-2.25 0 -2.25 0 0 0 Z " fill="#3F3D3E" transform="translate(458,176)"/>
<path d="M0 0 C0.99 0.33 1.98 0.66 3 1 C2.67 2.32 2.34 3.64 2 5 C2.99 5.33 3.98 5.66 5 6 C4.01 6.495 4.01 6.495 3 7 C2.01 6.34 1.02 5.68 0 5 C0 4.01 0 3.02 0 2 C-0.66 1.67 -1.32 1.34 -2 1 C-1.34 0.67 -0.68 0.34 0 0 Z " fill="#191819" transform="translate(243,294)"/>
<path d="M0 0 C1.65 1.65 3.3 3.3 5 5 C4.67 5.66 4.34 6.32 4 7 C3.01 6.67 2.02 6.34 1 6 C-0.1875 3.4375 -0.1875 3.4375 -1 1 C-0.67 0.67 -0.34 0.34 0 0 Z " fill="#353132" transform="translate(235,284)"/>
<path d="M0 0 C-0.9977758 2.99332739 -1.7522025 3.94766315 -4 6 C-5.32 5.34 -6.64 4.68 -8 4 C-2.7826087 0 -2.7826087 0 0 0 Z " fill="#3F3C3D" transform="translate(344,233)"/>
<path d="M0 0 C2.3125 1.9375 2.3125 1.9375 4 4 C3.01 4.495 3.01 4.495 2 5 C-0.35981813 4.06421005 -2.69631264 3.06652192 -5 2 C-5 1.67 -5 1.34 -5 1 C-2.75 0.25 -2.75 0.25 0 0 Z " fill="#343233" transform="translate(211,235)"/>
<path d="M0 0 C2.1519437 3.22791555 2.20086443 4.28400809 2 8 C0.68 8.33 -0.64 8.66 -2 9 C-1.34 6.03 -0.68 3.06 0 0 Z " fill="#D3D3D3" transform="translate(418,388)"/>
<path d="M0 0 C0 0.66 0 1.32 0 2 C-0.66 2 -1.32 2 -2 2 C-2 2.66 -2 3.32 -2 4 C-3.98 4.33 -5.96 4.66 -8 5 C-3.375 0 -3.375 0 0 0 Z " fill="#303030" transform="translate(415,279)"/>
<path d="M0 0 C1.98 0.66 3.96 1.32 6 2 C5.67 2.99 5.34 3.98 5 5 C2.525 4.01 2.525 4.01 0 3 C0 2.01 0 1.02 0 0 Z " fill="#E6E6E6" transform="translate(288,227)"/>
<path d="M0 0 C0.33 0.66 0.66 1.32 1 2 C-0.98 4.31 -2.96 6.62 -5 9 C-5 4.61031544 -2.87194899 3.23094261 0 0 Z " fill="#D7D5D6" transform="translate(349,432)"/>
<path d="M0 0 C0.33 0 0.66 0 1 0 C1.33 2.31 1.66 4.62 2 7 C0.02 7.99 0.02 7.99 -2 9 C-1.34 6.03 -0.68 3.06 0 0 Z " fill="#D6D4D5" transform="translate(452,277)"/>
<path d="M0 0 C0 0.66 0 1.32 0 2 C-2.3125 3.6875 -2.3125 3.6875 -5 5 C-5.99 4.67 -6.98 4.34 -8 4 C-2.7826087 0 -2.7826087 0 0 0 Z " fill="#3A3939" transform="translate(366,222)"/>
<path d="M0 0 C-0.33 1.65 -0.66 3.3 -1 5 C-1.99 5 -2.98 5 -4 5 C-4 4.34 -4 3.68 -4 3 C-4.66 2.67 -5.32 2.34 -6 2 C-2.25 0 -2.25 0 0 0 Z " fill="#353334" transform="translate(382,214)"/>
<path d="M0 0 C0 0.66 0 1.32 0 2 C-1.98 2.66 -3.96 3.32 -6 4 C-6 3.01 -6 2.02 -6 1 C-4 0 -4 0 0 0 Z " fill="#EFEEEF" transform="translate(388,209)"/>
<path d="M0 0 C2.31 0.33 4.62 0.66 7 1 C3.91190305 2.76462683 2.76687864 3 -1 3 C-0.67 2.01 -0.34 1.02 0 0 Z " fill="#1A1A1A" transform="translate(173,173)"/>
</svg>
